<svg width="297" height="251" viewBox="0 0 297 251" fill="none" xmlns="http://www.w3.org/2000/svg">
<path d="M295.64 202.52C295.64 217.56 290.12 229.24 279.08 237.56C268.84 245.4 255 249.32 237.56 249.32H154.76V241.16C163.4 241.16 169.08 240.28 171.8 238.52C174.68 235.96 176.12 232.36 176.12 227.72V104.6C176.12 102.52 175.8 100.92 175.16 99.8C174.52 97.72 173.56 95.96 172.28 94.52C168.92 91.64 163.08 90.2 154.76 90.2V82.04H233.48C251.72 82.04 265.4 85.4 274.52 92.12C283.8 99 288.44 109 288.44 122.12C288.44 130.28 285.4 137.88 279.32 144.92C276.6 147.96 273.48 150.68 269.96 153.08C266.6 155.32 262.84 157.24 258.68 158.84C268.6 161.72 276.52 165.88 282.44 171.32C291.24 179.16 295.64 189.56 295.64 202.52ZM271.88 121.88C271.88 117.08 270.92 112.68 269 108.68C267.24 104.68 264.76 101.32 261.56 98.6C258.36 95.88 254.44 93.88 249.8 92.6C245.16 91.32 240.12 90.68 234.68 90.68H208.76C204.6 90.68 201.24 91.16 198.68 92.12C193.88 94.36 191.48 98.44 191.48 104.36V155.72H234.92C237.96 155.72 240.92 155.48 243.8 155C249.72 153.88 255.16 151.16 260.12 146.84C267.96 140.44 271.88 132.12 271.88 121.88ZM279.08 202.52C279.08 191.8 275.4 182.84 268.04 175.64C260.36 168.44 250.52 164.84 238.52 164.84H191.48V227.48C191.48 233.72 193.8 237.72 198.44 239.48C200.84 240.28 204.28 240.68 208.76 240.68H237.08C249.24 240.68 259.16 237.56 266.84 231.32C275 224.44 279.08 214.84 279.08 202.52Z" fill="#03045E"/>
<path d="M279.08 237.56L278.478 236.761L278.472 236.766L279.08 237.56ZM154.76 249.32H153.76V250.32H154.76V249.32ZM154.76 241.16V240.16H153.76V241.16H154.76ZM171.8 238.52L172.343 239.36L172.407 239.318L172.464 239.267L171.8 238.52ZM175.16 99.8L174.204 100.094L174.237 100.2L174.292 100.296L175.16 99.8ZM172.28 94.52L173.027 93.8556L172.982 93.8049L172.931 93.7607L172.28 94.52ZM154.76 90.2H153.76V91.2H154.76V90.2ZM154.76 82.04V81.04H153.76V82.04H154.76ZM274.52 92.12L275.116 91.3167L275.113 91.3149L274.52 92.12ZM279.32 144.92L280.065 145.587L280.071 145.58L280.077 145.574L279.32 144.92ZM269.96 153.08L270.515 153.912L270.523 153.906L269.96 153.08ZM258.68 158.84L258.321 157.907L255.55 158.973L258.401 159.8L258.68 158.84ZM282.44 171.32L281.763 172.056L281.769 172.062L281.775 172.067L282.44 171.32ZM269 108.68L268.085 109.083L268.091 109.098L268.098 109.113L269 108.68ZM261.56 98.6L260.912 99.3619L260.912 99.3619L261.56 98.6ZM249.8 92.6L249.534 93.564L249.534 93.564L249.8 92.6ZM198.68 92.12L198.329 91.1837L198.292 91.1973L198.257 91.2138L198.68 92.12ZM191.48 155.72H190.48V156.72H191.48V155.72ZM243.8 155L243.964 155.986L243.975 155.985L243.986 155.983L243.8 155ZM260.12 146.84L259.488 146.065L259.475 146.075L259.463 146.086L260.12 146.84ZM268.04 175.64L268.739 174.925L268.732 174.918L268.724 174.91L268.04 175.64ZM191.48 164.84V163.84H190.48V164.84H191.48ZM198.44 239.48L198.085 240.415L198.104 240.422L198.124 240.429L198.44 239.48ZM266.84 231.32L267.471 232.096L267.478 232.09L267.485 232.085L266.84 231.32ZM5 239L0.226497 249H11.7735L7 239H5ZM6 1V0H5V1H6ZM70 1L70.9075 0.579876L70.639 0H70V1ZM95 55L94.0925 55.4201L95.0801 57.5532L95.932 55.3624L95 55ZM116 1V0H115.316L115.068 0.637554L116 1ZM177 1H178V0H177V1ZM39 239L34.2265 249H45.7735L41 239H39ZM40 49L40.8321 48.4453L39 45.6972V49H40ZM74 100L73.1679 100.555L73.4648 101H74V100ZM114 100V101H114.613L114.891 100.454L114 100ZM140 49H141L139.109 48.5458L140 49ZM139 239L134.226 249H145.774L141 239H139ZM294.64 202.52C294.64 217.278 289.243 228.649 278.478 236.761L279.682 238.359C290.997 229.831 296.64 217.842 296.64 202.52H294.64ZM278.472 236.766C268.459 244.432 254.857 248.32 237.56 248.32V250.32C255.143 250.32 269.221 246.368 279.688 238.354L278.472 236.766ZM237.56 248.32H154.76V250.32H237.56V248.32ZM155.76 249.32V241.16H153.76V249.32H155.76ZM154.76 242.16C159.108 242.16 162.744 241.939 165.653 241.488C168.541 241.041 170.807 240.354 172.343 239.36L171.257 237.68C170.073 238.446 168.139 239.079 165.347 239.512C162.576 239.941 159.052 240.16 154.76 240.16V242.16ZM172.464 239.267C175.601 236.479 177.12 232.582 177.12 227.72H175.12C175.12 232.138 173.759 235.441 171.136 237.773L172.464 239.267ZM177.12 227.72V104.6H175.12V227.72H177.12ZM177.12 104.6C177.12 102.442 176.792 100.641 176.028 99.3039L174.292 100.296C174.808 101.199 175.12 102.598 175.12 104.6H177.12ZM176.116 99.5059C175.439 97.3067 174.414 95.4158 173.027 93.8556L171.533 95.1844C172.706 96.5042 173.601 98.1332 174.204 100.094L176.116 99.5059ZM172.931 93.7607C169.287 90.6373 163.135 89.2 154.76 89.2V91.2C163.025 91.2 168.553 92.6427 171.629 95.2792L172.931 93.7607ZM155.76 90.2V82.04H153.76V90.2H155.76ZM154.76 83.04H233.48V81.04H154.76V83.04ZM233.48 83.04C251.627 83.04 265.055 86.388 273.927 92.925L275.113 91.3149C265.745 84.412 251.813 81.04 233.48 81.04V83.04ZM273.924 92.9233C282.913 99.5872 287.44 109.267 287.44 122.12H289.44C289.44 108.733 284.687 98.4128 275.116 91.3167L273.924 92.9233ZM287.44 122.12C287.44 130.007 284.51 137.381 278.563 144.266L280.077 145.574C286.29 138.379 289.44 130.553 289.44 122.12H287.44ZM278.575 144.253C275.911 147.23 272.853 149.897 269.397 152.254L270.523 153.906C274.107 151.463 277.289 148.69 280.065 145.587L278.575 144.253ZM269.405 152.248C266.113 154.443 262.419 156.33 258.321 157.907L259.039 159.773C263.261 158.15 267.087 156.197 270.515 153.912L269.405 152.248ZM258.401 159.8C268.214 162.649 275.985 166.746 281.763 172.056L283.117 170.584C277.055 165.014 268.986 160.791 258.959 157.88L258.401 159.8ZM281.775 172.067C290.339 179.697 294.64 189.813 294.64 202.52H296.64C296.64 189.307 292.141 178.623 283.105 170.573L281.775 172.067ZM272.88 121.88C272.88 116.943 271.892 112.393 269.902 108.247L268.098 109.113C269.948 112.967 270.88 117.217 270.88 121.88H272.88ZM269.915 108.277C268.097 104.145 265.528 100.66 262.208 97.8381L260.912 99.3619C263.992 101.98 266.383 105.215 268.085 109.083L269.915 108.277ZM262.208 97.8381C258.882 95.0108 254.826 92.9491 250.066 91.636L249.534 93.564C254.054 94.8109 257.838 96.7491 260.912 99.3619L262.208 97.8381ZM250.066 91.636C245.329 90.3292 240.198 89.68 234.68 89.68V91.68C240.042 91.68 244.991 92.3108 249.534 93.564L250.066 91.636ZM234.68 89.68H208.76V91.68H234.68V89.68ZM208.76 89.68C204.536 89.68 201.044 90.1656 198.329 91.1837L199.031 93.0563C201.436 92.1544 204.664 91.68 208.76 91.68V89.68ZM198.257 91.2138C195.696 92.4088 193.733 94.1181 192.418 96.353C191.108 98.5807 190.48 101.266 190.48 104.36H192.48C192.48 101.534 193.052 99.2192 194.142 97.367C195.227 95.5218 196.864 94.0712 199.103 93.0262L198.257 91.2138ZM190.48 104.36V155.72H192.48V104.36H190.48ZM191.48 156.72H234.92V154.72H191.48V156.72ZM234.92 156.72C238.013 156.72 241.028 156.476 243.964 155.986L243.636 154.014C240.812 154.484 237.907 154.72 234.92 154.72V156.72ZM243.986 155.983C250.096 154.827 255.696 152.02 260.777 147.594L259.463 146.086C254.624 150.3 249.344 152.933 243.614 154.017L243.986 155.983ZM260.752 147.615C268.828 141.022 272.88 132.416 272.88 121.88H270.88C270.88 131.824 267.092 139.858 259.488 146.065L260.752 147.615ZM280.08 202.52C280.08 191.543 276.3 182.322 268.739 174.925L267.341 176.355C274.5 183.358 278.08 192.057 278.08 202.52H280.08ZM268.724 174.91C260.832 167.512 250.736 163.84 238.52 163.84V165.84C250.304 165.84 259.888 169.368 267.356 176.37L268.724 174.91ZM238.52 163.84H191.48V165.84H238.52V163.84ZM190.48 164.84V227.48H192.48V164.84H190.48ZM190.48 227.48C190.48 230.717 191.081 233.465 192.355 235.662C193.639 237.876 195.567 239.46 198.085 240.415L198.795 238.545C196.673 237.74 195.121 236.444 194.085 234.658C193.039 232.855 192.48 230.483 192.48 227.48H190.48ZM198.124 240.429C200.676 241.279 204.242 241.68 208.76 241.68V239.68C204.318 239.68 201.005 239.281 198.756 238.531L198.124 240.429ZM208.76 241.68H237.08V239.68H208.76V241.68ZM237.08 241.68C249.415 241.68 259.574 238.512 267.471 232.096L266.209 230.544C258.746 236.608 249.065 239.68 237.08 239.68V241.68ZM267.485 232.085C275.906 224.984 280.08 215.084 280.08 202.52H278.08C278.08 214.596 274.094 223.896 266.195 230.555L267.485 232.085ZM7 240V1H5V240H7ZM6 2H70V0H6V2ZM69.0925 1.42012L94.0925 55.4201L95.9075 54.5799L70.9075 0.579876L69.0925 1.42012ZM95.932 55.3624L116.932 1.36245L115.068 0.637554L94.068 54.6376L95.932 55.3624ZM116 2H177V0H116V2ZM176 1V249H178V1H176ZM41 240V49H39V240H41ZM39.1679 49.5547L73.1679 100.555L74.8321 99.4453L40.8321 48.4453L39.1679 49.5547ZM74 101H114V99H74V101ZM114.891 100.454L140.891 49.4542L139.109 48.5458L113.109 99.5458L114.891 100.454ZM139 49V240H141V49H139Z" fill="#03045E"/>
</svg>
